<?xml version="1.0" encoding="UTF-8"?>
<svg id="Layer_2" xmlns="http://www.w3.org/2000/svg" version="1.1" viewBox="0 0 1080 1080">
  <!-- Generator: Adobe Illustrator 29.7.1, SVG Export Plug-In . SVG Version: 2.1.1 Build 8)  -->
  <path d="M273.5,600.24l135.25-135.25c15.28-15.28,35.59-23.69,57.2-23.69h267.44c4.78,0,8.94,3.04,10.11,7.4,3.31,12.27-2.52,25.36-13.86,31.1l-9.54,4.84c-17.35,8.8-36.71,14.78-79.47,17.39l-46.7,2.24c-11.78.56-20.91,10.61-20.34,22.39.27,5.71,2.75,10.97,6.98,14.81,4.23,3.84,9.7,5.81,15.41,5.53l46.83-2.24h.23c44.01-2.69,70.14-8.64,96.41-21.96l9.54-4.84c29.23-14.82,44.31-48.56,35.87-80.22-6.16-23.1-27.31-39.24-51.45-39.24h-267.46c-33.03,0-64.09,12.86-87.45,36.22l-135.25,135.25c-4.04,4.04-6.27,9.41-6.27,15.13s2.23,11.09,6.27,15.13h0c4.04,4.04,9.41,6.27,15.13,6.27s11.09-2.23,15.13-6.27Z"/>
  <path d="M276.01,713.54c5.7-.34,10.94-2.88,14.73-7.16l128.95-145.29c4.65-5.24,9.92-9.34,15.67-12.2,9.59-4.77,18.21-5.13,28.81-1.22,4.67,1.73,9.37,4.24,13.97,7.46l182.12,127.74c8.44,5.92,10.86,17.46,5.64,26.86-3.03,5.45-6.87,7.89-12.16,7.82-4.55-.1-8.4-2.12-8.4-2.12l-.4-.2c-10.65-5.07-23.44-.53-28.51,10.12-2.46,5.16-2.76,10.97-.85,16.35,1.91,5.39,5.81,9.71,10.97,12.16,7.96,3.79,16.6,5.68,25.21,5.68,9.27,0,18.52-2.19,26.85-6.55,7.41-3.87,17.56-10.67,23.86-21.03,17.13-28.21,9.39-65.15-17.63-84.1l-191.16-134.08-.36-.24c-34.16-21.15-68.17-17.35-98.35,11.02l-.25.23-135.97,153.21c-3.79,4.27-5.7,9.77-5.36,15.47.34,5.7,2.88,10.94,7.16,14.73,4.27,3.79,9.76,5.69,15.47,5.36Z"/>
  <path d="M445.64,775.13l53.07,27.45c29.03,15.02,64.86,6.01,83.34-20.95,20-29.19,13.26-68.35-15.36-89.16l-85.61-62.27c-26.43-19.22-63.11-14.27-83.5,11.26l-98.88,123.83c-8.5,10.64-15.08,22.56-19.57,35.41-11.02,31.53-4.46,66.95,17.12,92.45l4.09,4.83c4.23,4.99,10.27,7.56,16.35,7.56,4.88,0,9.79-1.66,13.8-5.05,9.01-7.62,10.13-21.14,2.51-30.15l-4.09-4.83c-11.83-13.98-15.43-33.41-9.39-50.7,2.89-8.29,7.14-15.96,12.62-22.82l98.88-123.83c6.08-7.61,17.02-9.09,24.9-3.36l85.61,62.26c9.75,7.09,12.04,20.43,5.23,30.37-6.29,9.18-18.5,12.25-28.38,7.14l-53.07-27.45c-10.48-5.42-23.41-1.3-28.83,9.17-2.63,5.08-3.12,10.87-1.39,16.32,1.73,5.45,5.48,9.89,10.56,12.52Z"/>
  <path d="M824.46,715.07l-56.48-145.17c-4.11-10.55-16.36-16-27.32-12.16-5.51,1.93-9.86,5.86-12.25,11.04-2.3,5-2.47,10.58-.48,15.71l56.48,145.17c20.73,53.28,21.1,112.09,1.05,165.6-20.03,53.46-71.57,90.1-131.31,93.35-12.84.71-26.33-.39-40.07-3.26l-146.76-49.36c-11.02-3.71-23.2,1.91-27.15,12.52-1.92,5.15-1.67,10.72.69,15.69,2.46,5.15,6.86,9.02,12.4,10.88l147.96,49.76.77.26,1.61.39c14.47,3.12,28.93,4.71,42.97,4.71,3.35,0,6.71-.09,10-.27,76.87-4.18,143.26-51.5,169.13-120.56,23.52-62.78,23.08-131.78-1.24-194.29Z"/>
  <path d="M524.04,309.87l7.7,49.05c1.83,11.65,12.8,19.65,24.45,17.82,11.65-1.83,19.65-12.8,17.82-24.45l-7.77-49.53c-1.07-6.84,2.59-13.6,8.91-16.42,5.45-2.44,11.43-3.19,17.3-2.19,8.23,1.41,15.78,6.86,20.29,14.62l26.92,65.81h0c3.39,8.28,11.4,13.29,19.83,13.29,2.51,0,5.05-.44,7.52-1.38l.56-.22c10.92-4.47,16.17-16.98,11.7-27.9l-27.41-67.01-.28-.68-.69-1.36c-10.64-19.72-29.78-33.68-51.21-37.35-14.29-2.45-28.83-.6-42.07,5.34-23.86,10.7-37.66,36.43-33.56,62.56Z"/>
  <path d="M274.88,499.65c1.91.53,3.82.78,5.71.78,9.37,0,18-6.22,20.62-15.68l77.21-278.28c2.47-8.91,9.52-15.85,18.39-18.11,6.79-1.74,13.93-.21,19.59,4.18,5.97,4.64,9.39,11.61,9.39,19.14v4.9c0,10.66-.69,21.43-2.06,32l-13.57,105.05c-1.51,11.7,6.78,22.45,18.48,23.96,11.7,1.51,22.45-6.78,23.96-18.48l13.57-105.05c1.6-12.38,2.41-24.99,2.41-37.48v-3.53c0-27.55-15.86-51.37-41.38-62.19-24.92-10.56-52.37-5.53-71.63,13.12-8.74,8.46-15.09,19.2-18.38,31.05l-77.21,278.28c-1.53,5.51-.82,11.28,1.99,16.25s7.4,8.55,12.9,10.08Z"/>
  <path d="M511.23,170.6c1.59,10.58,10.73,18.22,21.14,18.22,1.01,0,2.03-.07,3.06-.22,5.66-.81,10.66-3.78,14.08-8.36,3.4-4.54,4.84-10.13,4.06-15.74l-10.01-88.74-.03-.23c-1.75-12.15-15.96-19.72-27-18.12-11.3,1.63-22.67,11.98-20.9,24.23l15.6,88.97Z"/>
  <path d="M726.12,247.81c3.74,2.8,8.18,4.27,12.77,4.27,1.03,0,2.06-.07,3.1-.22,5.62-.81,10.6-3.75,14.02-8.28l56.5-71.8.11-.15c7.4-9.89,2.2-22.99-7.09-29.95-4.48-3.35-10.71-4.84-17.08-4.07-6.54.79-12.25,3.84-15.64,8.38l-51.05,71.95c-3.38,4.56-4.79,10.16-3.98,15.78.81,5.66,3.78,10.66,8.36,14.08Z"/>
  <path d="M642.3,194.86c2.36.85,4.8,1.27,7.24,1.27,3.11,0,6.22-.69,9.12-2.06,5.14-2.43,9.03-6.7,10.97-12.03l39.88-103.44.06-.17c4.13-11.52-4.78-23.45-15.69-27.36-10.45-3.75-25.89,1.08-30.14,12.91l-34.38,103.61c-1.89,5.35-1.6,11.12.82,16.26,2.44,5.17,6.75,9.08,12.12,11.01Z"/>
</svg>